<?xml version="1.0" encoding="UTF-8" standalone="no"?>
<!-- Created with Inkscape (http://www.inkscape.org/) -->

<svg
   width="66.145729mm"
   height="66.145729mm"
   viewBox="0 0 66.145729 66.145729"
   version="1.1"
   id="svg1"
   xml:space="preserve"
   inkscape:version="1.4 (e7c3feb100, 2024-10-09)"
   sodipodi:docname="favicon.svg"
   inkscape:export-filename="logo.png"
   inkscape:export-xdpi="96"
   inkscape:export-ydpi="96"
   xmlns:inkscape="http://www.inkscape.org/namespaces/inkscape"
   xmlns:sodipodi="http://sodipodi.sourceforge.net/DTD/sodipodi-0.dtd"
   xmlns="http://www.w3.org/2000/svg"
   xmlns:svg="http://www.w3.org/2000/svg"><sodipodi:namedview
     id="namedview1"
     pagecolor="#ffffff"
     bordercolor="#000000"
     borderopacity="0.25"
     inkscape:showpageshadow="2"
     inkscape:pageopacity="0.0"
     inkscape:pagecheckerboard="0"
     inkscape:deskcolor="#d1d1d1"
     inkscape:document-units="mm"
     inkscape:zoom="1.0860052"
     inkscape:cx="106.81348"
     inkscape:cy="144.56653"
     inkscape:window-width="1366"
     inkscape:window-height="700"
     inkscape:window-x="0"
     inkscape:window-y="0"
     inkscape:window-maximized="1"
     inkscape:current-layer="layer1" /><defs
     id="defs1" /><g
     inkscape:label="Layer 1"
     inkscape:groupmode="layer"
     id="layer1"
     transform="translate(-71.927137,-115.42714)"><rect
       style="fill:#ffffff;fill-opacity:1;stroke:none;stroke-width:1.411;stroke-linecap:round;stroke-linejoin:round;stroke-dasharray:none;paint-order:stroke fill markers"
       id="rect3"
       width="64.734726"
       height="64.734726"
       x="72.632637"
       y="116.13264"
       ry="15.207098" /><g
       id="g3"
       transform="matrix(0.47193954,0,0,0.47193954,-30.147407,71.352546)"
       style="stroke-width:2.11892"><path
         style="fill:#885133;fill-opacity:1;stroke-width:2.11892"
         d="m 326.51303,216.13761 c -3.31557,-0.40461 -6.11449,-1.81397 -8.60499,-4.33294 -3.85591,-3.89998 -5.29013,-9.02411 -3.83279,-13.69362 0.71875,-2.30295 1.3659,-3.18632 6.11885,-8.35226 4.44617,-4.83251 5.84156,-6.86341 7.11711,-10.3585 4.36784,-11.96816 -1.09918,-25.85849 -12.30555,-31.26529 -3.53575,-1.70592 -6.00176,-2.23394 -10.31875,-2.20944 -4.38708,0.0249 -6.62332,0.52634 -10.31875,2.31386 -3.21127,1.55334 -4.1744,2.32565 -11.11112,8.90984 -3.29023,3.123 -6.54206,6.00059 -7.2263,6.39462 -4.47261,2.57567 -10.24421,1.75508 -13.66827,-1.94331 -1.70403,-1.84057 -2.53495,-3.82158 -2.72118,-6.48765 -0.15914,-2.27828 0.55035,-4.95716 1.75233,-6.61644 1.33777,-1.84674 32.06211,-32.83002 33.68342,-33.96731 1.93633,-1.35825 4.8249,-2.68911 7.22862,-3.33046 1.68494,-0.44957 2.98629,-0.49417 14.41979,-0.49417 11.44825,0 12.70912,0.0433 14.15521,0.48649 5.11069,1.56618 8.99412,5.50291 10.38108,10.52359 0.43673,1.58091 0.46684,4.31814 0.46684,42.43575 v 40.74583 l -0.58432,1.85208 c -1.01336,3.21202 -2.74633,5.52257 -5.49011,7.31993 -2.55063,1.67084 -6.00287,2.45237 -9.14112,2.0694 z"
         id="path2" /><path
         style="fill:#3af81a;fill-opacity:1;stroke-width:2.11892"
         d="m 241.73402,215.73557 c -4.94687,-1.35747 -9.01622,-5.46773 -10.34057,-10.4445 -0.33125,-1.24479 -0.38716,-7.34013 -0.38985,-42.50189 -0.003,-40.05635 0.009,-41.08934 0.51653,-42.73021 1.2796,-4.14039 4.55625,-7.42213 8.68339,-8.69687 2.42999,-0.75055 6.20701,-0.71521 8.53932,0.0799 3.87014,1.31938 7.17729,4.20874 8.83715,7.72075 1.21704,2.57507 1.56282,4.28722 1.39832,6.92392 -0.22609,3.62388 -1.08768,5.09812 -6.35046,10.866 -4.69442,5.14497 -6.06713,7.13075 -7.33973,10.61778 -2.83206,7.76001 -1.75513,16.11624 2.98924,23.19449 1.53449,2.28935 5.05688,5.67975 7.26173,6.98962 7.19207,4.27274 15.73537,4.56631 23.16915,0.79616 2.71657,-1.37775 4.16126,-2.55485 10.39369,-8.46855 3.28498,-3.11698 6.58764,-6.05034 7.33925,-6.51859 4.42919,-2.75934 10.36105,-1.94962 13.87373,1.89382 1.63741,1.79158 2.44273,3.78208 2.62904,6.49817 0.15723,2.29203 -0.47326,4.59065 -1.78023,6.49025 -1.09277,1.5883 -31.29644,32.20405 -33.19972,33.65268 -2.03757,1.55085 -4.74045,2.83525 -7.38451,3.50911 -1.96282,0.50023 -2.88336,0.5319 -14.81667,0.50971 -9.81851,-0.0182 -13.02179,-0.10542 -14.0288,-0.38176 z"
         id="path3" /></g></g></svg>
