<?xml version="1.0" encoding="UTF-8" standalone="no"?>
<!-- Created with Inkscape (http://www.inkscape.org/) -->

<svg
   width="287.41934mm"
   height="129.3387mm"
   viewBox="0 0 287.41934 129.3387"
   version="1.1"
   id="svg1"
   xml:space="preserve"
   inkscape:version="1.4 (e7c3feb100, 2024-10-09)"
   sodipodi:docname="logo.svg"
   xmlns:inkscape="http://www.inkscape.org/namespaces/inkscape"
   xmlns:sodipodi="http://sodipodi.sourceforge.net/DTD/sodipodi-0.dtd"
   xmlns="http://www.w3.org/2000/svg"
   xmlns:svg="http://www.w3.org/2000/svg"><sodipodi:namedview
     id="namedview1"
     pagecolor="#ffffff"
     bordercolor="#000000"
     borderopacity="0.25"
     inkscape:showpageshadow="2"
     inkscape:pageopacity="0.0"
     inkscape:pagecheckerboard="0"
     inkscape:deskcolor="#d1d1d1"
     inkscape:document-units="mm"
     inkscape:zoom="0.44186308"
     inkscape:cx="648.3909"
     inkscape:cy="373.41884"
     inkscape:window-width="1366"
     inkscape:window-height="700"
     inkscape:window-x="0"
     inkscape:window-y="0"
     inkscape:window-maximized="1"
     inkscape:current-layer="layer1" /><defs
     id="defs1" /><g
     inkscape:label="Layer 1"
     inkscape:groupmode="layer"
     id="layer1"
     transform="translate(310.92825,-128.91924)"><rect
       style="fill:#ffffff;stroke-width:1.411;stroke-linecap:round;stroke-linejoin:round;paint-order:stroke fill markers"
       id="rect3"
       width="287.41934"
       height="129.3387"
       x="-310.92825"
       y="128.91924"
       ry="26.999859" /><g
       id="g3"
       transform="matrix(0.91488396,0,0,0.91488396,-499.39454,44.033477)"
       style="stroke-width:1.09304"><path
         style="fill:#885133;fill-opacity:1;stroke-width:1.09304"
         d="m 326.51303,216.13761 c -3.31557,-0.40461 -6.11449,-1.81397 -8.60499,-4.33294 -3.85591,-3.89998 -5.29013,-9.02411 -3.83279,-13.69362 0.71875,-2.30295 1.3659,-3.18632 6.11885,-8.35226 4.44617,-4.83251 5.84156,-6.86341 7.11711,-10.3585 4.36784,-11.96816 -1.09918,-25.85849 -12.30555,-31.26529 -3.53575,-1.70592 -6.00176,-2.23394 -10.31875,-2.20944 -4.38708,0.0249 -6.62332,0.52634 -10.31875,2.31386 -3.21127,1.55334 -4.1744,2.32565 -11.11112,8.90984 -3.29023,3.123 -6.54206,6.00059 -7.2263,6.39462 -4.47261,2.57567 -10.24421,1.75508 -13.66827,-1.94331 -1.70403,-1.84057 -2.53495,-3.82158 -2.72118,-6.48765 -0.15914,-2.27828 0.55035,-4.95716 1.75233,-6.61644 1.33777,-1.84674 32.06211,-32.83002 33.68342,-33.96731 1.93633,-1.35825 4.8249,-2.68911 7.22862,-3.33046 1.68494,-0.44957 2.98629,-0.49417 14.41979,-0.49417 11.44825,0 12.70912,0.0433 14.15521,0.48649 5.11069,1.56618 8.99412,5.50291 10.38108,10.52359 0.43673,1.58091 0.46684,4.31814 0.46684,42.43575 v 40.74583 l -0.58432,1.85208 c -1.01336,3.21202 -2.74633,5.52257 -5.49011,7.31993 -2.55063,1.67084 -6.00287,2.45237 -9.14112,2.0694 z"
         id="path2" /><path
         style="fill:#3af81a;fill-opacity:1;stroke-width:1.09304"
         d="m 241.73402,215.73557 c -4.94687,-1.35747 -9.01622,-5.46773 -10.34057,-10.4445 -0.33125,-1.24479 -0.38716,-7.34013 -0.38985,-42.50189 -0.003,-40.05635 0.009,-41.08934 0.51653,-42.73021 1.2796,-4.14039 4.55625,-7.42213 8.68339,-8.69687 2.42999,-0.75055 6.20701,-0.71521 8.53932,0.0799 3.87014,1.31938 7.17729,4.20874 8.83715,7.72075 1.21704,2.57507 1.56282,4.28722 1.39832,6.92392 -0.22609,3.62388 -1.08768,5.09812 -6.35046,10.866 -4.69442,5.14497 -6.06713,7.13075 -7.33973,10.61778 -2.83206,7.76001 -1.75513,16.11624 2.98924,23.19449 1.53449,2.28935 5.05688,5.67975 7.26173,6.98962 7.19207,4.27274 15.73537,4.56631 23.16915,0.79616 2.71657,-1.37775 4.16126,-2.55485 10.39369,-8.46855 3.28498,-3.11698 6.58764,-6.05034 7.33925,-6.51859 4.42919,-2.75934 10.36105,-1.94962 13.87373,1.89382 1.63741,1.79158 2.44273,3.78208 2.62904,6.49817 0.15723,2.29203 -0.47326,4.59065 -1.78023,6.49025 -1.09277,1.5883 -31.29644,32.20405 -33.19972,33.65268 -2.03757,1.55085 -4.74045,2.83525 -7.38451,3.50911 -1.96282,0.50023 -2.88336,0.5319 -14.81667,0.50971 -9.81851,-0.0182 -13.02179,-0.10542 -14.0288,-0.38176 z"
         id="path3" /></g><path
       d="m -167.90124,166.33948 v -18.38137 h -6.86636 v -2.45938 h 16.51907 v 2.45938 h -6.89479 v 18.38137 z m 24.65114,0 v -20.84075 h 2.75791 v 20.84075 z m 19.36276,0 v -20.84075 h 9.24044 q 2.78635,0 4.23639,0.56864 1.45003,0.55443 2.31721,1.97603 0.86718,1.42161 0.86718,3.14175 0,2.21771 -1.43582,3.73883 -1.43582,1.52112 -4.43541,1.93338 1.09464,0.526 1.66328,1.03778 1.20836,1.10885 2.28879,2.77213 l 3.62509,5.67221 h -3.46872 l -2.75791,-4.3359 q -1.20837,-1.87652 -1.99025,-2.87165 -0.78189,-0.99512 -1.40739,-1.39317 -0.61129,-0.39805 -1.25102,-0.55443 -0.46913,-0.0995 -1.53533,-0.0995 h -3.19862 v 9.25466 z m 2.75791,-11.64296 h 5.9281 q 1.89074,0 2.95694,-0.38383 1.06621,-0.39805 1.62063,-1.25102 0.55443,-0.86718 0.55443,-1.87652 0,-1.47847 -1.08042,-2.43094 -1.0662,-0.95248 -3.38342,-0.95248 h -6.59626 z m 34.701893,11.64296 v -18.38137 h -6.866359 v -2.45938 h 16.519067 v 2.45938 h -6.894791 v 18.38137 z m 19.732375,0 8.003645,-20.84075 h 2.971157 l 8.529639,20.84075 h -3.14175 l -2.430947,-6.31194 h -8.714448 l -2.288786,6.31194 z m 6.013396,-8.55807 h 7.065384 l -2.175058,-5.77173 q -0.995125,-2.62997 -1.478471,-4.32168 -0.39805,2.00447 -1.123069,3.9805 z"
       id="text1"
       style="font-size:29.1145px;line-height:1.25;font-family:Arial;-inkscape-font-specification:'Arial, Normal';font-variant-ligatures:none;text-align:center;letter-spacing:11.7003px;text-anchor:middle;stroke-width:1.411;stroke-linecap:round;stroke-linejoin:round;paint-order:stroke fill markers"
       aria-label="TIRTA" /><path
       d="m -174.76756,204.1924 v -27.57705 h 5.56808 v 27.57705 z m 10.92924,0 v -27.57705 h 5.41759 l 11.28665,18.41605 v -18.41605 h 5.17305 v 27.57705 h -5.58689 l -11.11735,-17.9834 v 17.9834 z m 27.76516,0 v -27.57705 h 20.44765 v 4.66515 h -14.87957 v 6.1136 h 13.84496 v 4.64634 h -13.84496 v 7.50562 h 15.40628 v 4.64634 z m 25.71476,0 v -27.57705 h 11.719301 q 4.420605,0 6.41458,0.75244 2.012786,0.73363 3.216695,2.63355 1.20391,1.89992 1.20391,4.34536 0,3.10383 -1.824675,5.13543 -1.824676,2.01279 -5.455215,2.5395 1.805864,1.05342 2.972151,2.31376 1.185099,1.26034 3.179074,4.47704 l 3.367184,5.37997 h -6.659124 l -4.025572,-6.00074 q -2.144464,-3.21669 -2.934529,-4.04438 -0.790066,-0.8465 -1.67419,-1.14748 -0.88412,-0.31979 -2.80285,-0.31979 h -1.12866 v 11.51239 z m 5.56808,-15.91418 h 4.11962 q 4.006765,0 5.003753,-0.3386 0.996987,-0.3386 1.56132,-1.16629 0.564332,-0.82768 0.564332,-2.06922 0,-1.39202 -0.752443,-2.23851 -0.733633,-0.86531 -2.088031,-1.09105 -0.677199,-0.0941 -4.063191,-0.0941 h -4.34536 z m 35.063858,5.775 v -4.64633 h 12.001472 v 10.98567 q -1.749431,1.693 -5.078993,2.99096 -3.31075,1.27916 -6.715557,1.27916 -4.326549,0 -7.543245,-1.80587 -3.216695,-1.82467 -4.834448,-5.19186 -1.617753,-3.38599 -1.617753,-7.35513 0,-4.30774 1.805864,-7.65611 1.805864,-3.34838 5.285914,-5.13543 2.652363,-1.37321 6.602691,-1.37321 5.135426,0 8.013522,2.16328 2.896907,2.14446 3.724595,5.9443 l -5.530459,1.03461 q -0.583144,-2.0316 -2.200897,-3.19789 -1.598942,-1.18509 -4.006761,-1.18509 -3.64935,0 -5.812625,2.31376 -2.144464,2.31376 -2.144464,6.86604 0,4.9097 2.182086,7.37395 2.182086,2.44544 5.71857,2.44544 1.749431,0 3.498861,-0.6772 1.768242,-0.69601 3.028585,-1.67418 v -3.49887 z m 16.967598,10.13918 v -27.57705 h 5.568081 v 27.57705 z"
       id="text2"
       style="font-weight:bold;font-size:38.5251px;line-height:1.25;font-family:Arial;-inkscape-font-specification:'Arial, Bold';font-variant-ligatures:none;text-align:center;letter-spacing:0px;text-anchor:middle;stroke-width:1.411;stroke-linecap:round;stroke-linejoin:round;paint-order:stroke fill markers"
       aria-label="INERGI" /><path
       d="m -147.09645,241.86189 h -6.05717 l -2.40781,-6.26409 h -11.0233 l -2.27614,6.26409 h -5.90668 l 10.74113,-27.57705 h 5.88787 z m -10.25204,-10.91043 -3.79984,-10.23323 -3.72459,10.23323 z m 19.97045,10.91043 v -27.35131 h 5.56808 v 22.70497 h 13.84496 v 4.64634 z m 54.865014,0 h -6.057169 l -2.407819,-6.26409 h -11.023296 l -2.27614,6.26409 h -5.90668 l 10.741128,-27.57705 h 5.887869 z m -10.252041,-10.91043 -3.799839,-10.23323 -3.724594,10.23323 z m 19.744716,10.91043 v -27.57705 h 8.33331 l 5.003748,18.81109 4.947316,-18.81109 h 8.352121 v 27.57705 h -5.173048 V 220.1539 l -5.474026,21.70799 h -5.361159 l -5.455214,-21.70799 v 21.70799 z"
       id="text3"
       style="font-weight:bold;font-size:38.5251px;line-height:1.25;font-family:Arial;-inkscape-font-specification:'Arial, Bold';font-variant-ligatures:none;text-align:center;letter-spacing:6.61458px;text-anchor:middle;stroke-width:1.411;stroke-linecap:round;stroke-linejoin:round;paint-order:stroke fill markers"
       aria-label="ALAM" /></g></svg>
